<?xml version="1.0" standalone="no"?>
<!DOCTYPE svg PUBLIC "-//W3C//DTD SVG 20010904//EN"
 "http://www.w3.org/TR/2001/REC-SVG-20010904/DTD/svg10.dtd">
<svg version="1.0" xmlns="http://www.w3.org/2000/svg"
 width="15.000000pt" height="28.000000pt" viewBox="0 0 15.000000 28.000000"
 preserveAspectRatio="xMidYMid meet">

<g transform="translate(0.000000,28.000000) scale(0.100000,-0.100000)"
stroke="none">
<path d="M66 248 c-9 -12 -16 -33 -16 -45 0 -16 -6 -23 -20 -23 -15 0 -20 -7
-20 -25 0 -18 5 -25 20 -25 18 0 20 -7 20 -60 0 -57 1 -60 25 -60 24 0 25 3
25 60 0 53 2 60 20 60 15 0 20 7 20 25 0 18 -5 25 -20 25 -15 0 -20 7 -20 25
0 20 5 25 25 25 18 0 25 5 25 20 0 30 -63 28 -84 -2z"/>
</g>
</svg>
