<?xml version="1.0" standalone="no"?>
<!DOCTYPE svg PUBLIC "-//W3C//DTD SVG 20010904//EN"
 "http://www.w3.org/TR/2001/REC-SVG-20010904/DTD/svg10.dtd">
<svg version="1.0" xmlns="http://www.w3.org/2000/svg"
 width="27.000000pt" height="22.000000pt" viewBox="0 0 27.000000 22.000000"
 preserveAspectRatio="xMidYMid meet">

<g transform="translate(0.000000,22.000000) scale(0.100000,-0.100000)"
stroke="none">
<path d="M147 193 c-9 -11 -17 -27 -17 -36 0 -12 -6 -14 -29 -7 -16 4 -40 16
-55 25 l-26 17 3 -40 c1 -22 9 -47 16 -56 7 -9 10 -16 5 -16 -5 -1 2 -9 14
-20 l24 -20 -29 -11 -28 -11 24 -9 c72 -28 181 46 181 122 0 14 4 29 10 35 15
15 -4 34 -41 40 -26 4 -38 1 -52 -13z"/>
</g>
</svg>
