<?xml version="1.0" standalone="no"?>
<!DOCTYPE svg PUBLIC "-//W3C//DTD SVG 20010904//EN"
 "http://www.w3.org/TR/2001/REC-SVG-20010904/DTD/svg10.dtd">
<svg version="1.0" xmlns="http://www.w3.org/2000/svg"
 width="26.000000pt" height="27.000000pt" viewBox="0 0 26.000000 27.000000"
 preserveAspectRatio="xMidYMid meet">

<g transform="translate(0.000000,27.000000) scale(0.100000,-0.100000)"
stroke="none">
<path d="M84 256 c-94 -42 -107 -174 -22 -226 88 -53 188 4 188 107 0 90 -88
153 -166 119z m87 -16 c10 -6 19 -17 19 -24 0 -12 -47 -44 -53 -35 -12 17 -37
59 -37 64 0 9 51 5 71 -5z m-68 -32 c10 -17 14 -34 10 -38 -14 -13 -93 -21
-93 -10 0 18 29 68 42 73 21 9 22 8 41 -25z m133 -44 l6 -31 -43 6 c-53 7 -57
20 -16 47 36 24 44 21 53 -22z m-96 -19 c0 -8 -4 -15 -10 -15 -5 0 -28 -16
-49 -36 -38 -34 -40 -34 -50 -15 -22 40 -14 60 27 66 20 4 42 8 47 10 23 8 35
4 35 -10z m80 -25 c13 -8 13 -12 0 -36 -22 -40 -38 -40 -48 -2 -5 18 -7 36 -5
41 6 10 35 9 53 -3z m-62 -39 c16 -52 17 -51 -27 -51 -80 0 -93 24 -34 65 21
14 40 25 44 25 3 0 11 -17 17 -39z"/>
</g>
</svg>
