<?xml version="1.0" encoding="utf-8"?>
<!DOCTYPE svg PUBLIC "-//W3C//DTD SVG 20010904//EN" "http://www.w3.org/TR/2001/REC-SVG-20010904/DTD/svg10.dtd">
<svg version="1.0" xmlns="http://www.w3.org/2000/svg" width="62pt" height="62pt" viewBox="0 0 62 62" style="" preserveAspectRatio="xMidYMid meet">
<g fill="#000000FF" stroke="#000000FF">
<path d="M 17.222 3.047 C 5.972 8.668 0.020 18.341 0.020 31.000 C 0.020 43.659 5.972 53.332 17.222 58.953 C 22.314 61.498 24.500 62.000 30.482 62.000 C 40.756 62.000 46.364 59.784 53.074 53.074 C 59.784 46.364 62.000 40.756 62.000 30.482 C 62.000 18.047 55.309 7.847 43.565 2.378 C 35.762 -1.255 25.300 -0.990 17.222 3.047 M 54.779 15.750 C 56.953 18.872 59.000 24.400 59.000 27.149 C 59.000 28.740 58.175 29.000 53.127 29.000 L 47.254 29.000 46.748 24.250 C 46.470 21.638 45.948 18.801 45.589 17.946 C 45.130 16.852 45.907 15.910 48.218 14.760 C 52.583 12.589 52.577 12.588 54.779 15.750 M 13.527 14.714 C 16.400 16.084 16.996 16.837 16.497 18.464 C 16.153 19.584 15.618 22.413 15.306 24.750 L 14.740 29.000 8.870 29.000 C 3.929 29.000 3.007 28.723 3.044 27.250 C 3.135 23.629 7.942 13.000 9.489 13.000 C 9.733 13.000 11.550 13.771 13.527 14.714 M 59.000 34.822 C 59.000 37.286 56.236 45.084 54.590 47.265 C 53.327 48.938 53.048 48.911 49.276 46.765 C 46.003 44.903 45.434 44.144 46.077 42.500 C 46.507 41.400 46.891 38.813 46.930 36.750 L 47.000 33.000 53.000 33.000 C 58.138 33.000 59.000 33.262 59.000 34.822 M 15.100 36.250 C 15.155 38.038 15.518 40.625 15.908 42.000 C 16.520 44.161 16.099 44.798 12.797 46.698 L 8.978 48.896 7.368 46.439 C 5.440 43.496 3.105 37.185 3.044 34.750 C 3.007 33.273 3.936 33.000 9.000 33.000 L 15.000 33.000 15.100 36.250 M 29.500 24.083 L 29.500 29.000 23.750 29.000 C 17.323 29.000 17.246 28.879 19.079 21.602 L 20.157 17.319 24.829 18.243 L 29.500 19.166 29.500 24.083 M 43.924 26.250 C 43.998 28.926 43.852 29.000 38.500 29.000 L 33.000 29.000 33.000 24.059 L 33.000 19.118 37.250 18.258 C 41.373 17.424 41.535 17.489 42.674 20.449 C 43.320 22.127 43.882 24.738 43.924 26.250 M 29.500 37.500 C 29.500 39.975 29.275 42.020 29.000 42.044 C 28.725 42.068 26.592 42.456 24.259 42.908 L 20.019 43.728 19.015 40.114 C 17.134 33.342 17.361 33.000 23.750 33.000 L 29.500 33.000 29.500 37.500 M 43.626 37.710 C 43.271 40.300 42.648 42.703 42.240 43.049 C 41.833 43.395 39.588 43.274 37.250 42.780 C 33.023 41.887 33.000 41.858 33.000 37.441 L 33.000 33.000 38.636 33.000 L 44.272 33.000 43.626 37.710 M 48.240 49.624 C 51.267 51.190 51.311 51.301 49.440 52.702 C 46.906 54.602 41.129 57.548 38.104 58.485 L 35.708 59.227 38.374 56.364 C 39.840 54.789 41.591 52.263 42.264 50.750 C 43.693 47.539 44.070 47.468 48.240 49.624 M 19.000 49.320 C 19.000 50.046 20.659 52.578 22.686 54.946 C 26.070 58.900 26.173 59.191 23.936 58.498 C 20.908 57.560 15.113 54.616 12.636 52.758 C 10.877 51.439 10.962 51.267 14.136 49.703 C 18.240 47.681 19.000 47.621 19.000 49.320 M 45.250 6.772 C 47.863 8.172 50.000 9.642 50.000 10.038 C 50.000 10.433 48.598 11.338 46.884 12.048 C 44.146 13.182 43.652 13.129 42.801 11.609 C 42.269 10.658 40.419 8.269 38.691 6.301 C 35.628 2.812 35.611 2.741 38.024 3.474 C 39.386 3.888 42.638 5.372 45.250 6.772 M 17.531 12.965 C 16.964 12.945 15.469 12.357 14.208 11.657 C 12.022 10.444 11.999 10.313 13.708 8.821 C 16.005 6.816 19.692 4.908 22.942 4.044 C 25.489 3.367 25.485 3.384 22.031 8.182 C 20.124 10.832 18.099 12.984 17.531 12.965 M 39.454 46.621 C 40.938 47.190 40.934 47.458 39.406 49.871 C 38.490 51.317 36.596 53.731 35.197 55.236 L 32.653 57.972 32.897 51.986 C 33.123 46.441 33.314 46.000 35.489 46.000 C 36.780 46.000 38.564 46.279 39.454 46.621 M 29.359 51.918 L 29.219 57.838 26.792 55.169 C 25.457 53.701 23.619 51.296 22.708 49.825 C 20.848 46.820 21.463 46.212 26.500 46.078 L 29.500 45.999 29.359 51.918 M 38.595 11.200 C 40.517 14.894 40.461 15.000 36.593 15.000 L 33.185 15.000 32.843 9.558 L 32.500 4.115 34.845 6.308 C 36.135 7.513 37.822 9.715 38.595 11.200 M 25.750 15.001 C 23.688 15.000 22.000 14.650 22.000 14.223 C 22.000 13.240 24.714 9.168 27.272 6.312 L 29.231 4.125 29.366 9.563 L 29.500 15.001 25.750 15.001 "/></g>
</svg>
