<?xml version="1.0" encoding="utf-8"?>
<!DOCTYPE svg PUBLIC "-//W3C//DTD SVG 20010904//EN" "http://www.w3.org/TR/2001/REC-SVG-20010904/DTD/svg10.dtd">
<svg version="1.0" xmlns="http://www.w3.org/2000/svg" width="70pt" height="60pt" viewBox="0 0 70 60" style="" preserveAspectRatio="xMidYMid meet">
<g fill="#000000FF" stroke="#000000FF">
<path d="M 52.090 17.650 C 49.879 19.198 49.768 19.752 50.290 26.656 C 50.807 33.484 50.691 34.092 48.673 35.131 C 44.529 37.265 42.000 40.313 42.000 43.174 C 42.000 45.019 42.521 46.000 43.500 46.000 C 44.421 46.000 45.000 45.064 45.000 43.573 C 45.000 41.102 48.475 37.619 52.082 36.474 C 53.473 36.032 54.000 34.939 54.000 32.492 C 54.000 30.636 53.629 28.889 53.176 28.609 C 52.723 28.329 52.611 26.165 52.926 23.800 C 53.458 19.816 53.721 19.500 56.500 19.500 L 59.500 19.500 59.282 27.500 L 59.063 35.500 63.532 38.212 C 66.937 40.278 68.000 41.527 68.000 43.462 C 68.000 44.858 68.450 46.000 69.000 46.000 C 69.550 46.000 70.000 44.431 70.000 42.514 C 70.000 39.565 69.394 38.628 66.066 36.425 L 62.131 33.821 62.699 27.044 C 63.204 21.029 63.028 20.028 61.134 18.134 C 58.578 15.578 55.298 15.403 52.090 17.650 "/></g>
<g fill="#000000FF" stroke="#000000FF">
<path d="M 8.866 18.134 C 6.972 20.028 6.796 21.029 7.301 27.044 L 7.869 33.821 3.934 36.425 C 0.606 38.628 0.000 39.565 0.000 42.514 C 0.000 44.431 0.450 46.000 1.000 46.000 C 1.550 46.000 2.000 44.858 2.000 43.462 C 2.000 41.522 3.061 40.283 6.497 38.212 L 10.994 35.500 10.747 27.500 C 10.510 19.824 10.593 19.487 12.805 19.173 C 14.073 18.994 15.760 19.386 16.555 20.046 C 18.194 21.406 18.518 27.562 17.000 28.500 C 16.450 28.840 16.000 30.412 16.000 31.993 C 16.000 34.262 16.896 35.468 20.250 37.715 C 23.223 39.706 24.595 41.379 24.816 43.281 C 25.247 46.982 28.000 46.890 28.000 43.174 C 28.000 40.313 25.471 37.265 21.327 35.131 C 19.309 34.092 19.193 33.484 19.710 26.656 C 20.232 19.752 20.121 19.198 17.910 17.650 C 14.702 15.403 11.422 15.578 8.866 18.134 "/></g>
<g fill="#000000FF" stroke="#000000FF">
<path d="M 23.364 1.624 C 18.614 3.308 11.111 9.404 12.298 10.615 C 12.737 11.063 13.862 10.876 14.798 10.200 C 28.327 0.430 39.419 -0.249 51.500 7.951 C 54.286 9.842 54.340 9.987 52.250 9.993 C 50.883 9.997 50.000 10.611 50.000 11.557 C 50.000 12.771 50.938 13.047 54.250 12.807 C 58.474 12.502 58.500 12.476 58.500 8.583 C 58.500 6.339 57.966 4.489 57.250 4.250 C 56.510 4.003 56.000 4.705 56.000 5.968 C 56.000 8.045 55.907 8.031 52.502 5.434 C 50.578 3.966 47.316 2.163 45.252 1.427 C 40.329 -0.330 28.577 -0.224 23.364 1.624 "/></g>
<g fill="#000000FF" stroke="#000000FF">
<path d="M 11.000 51.941 C 11.000 54.109 11.450 56.160 12.000 56.500 C 12.574 56.854 13.000 55.952 13.000 54.385 L 13.000 51.651 15.250 53.713 C 16.488 54.847 19.473 56.765 21.886 57.977 C 25.693 59.889 27.551 60.134 35.976 59.839 C 45.273 59.514 45.919 59.342 51.340 55.740 C 54.453 53.672 57.000 51.309 57.000 50.490 C 57.000 48.483 56.938 48.504 51.049 52.467 C 40.358 59.661 30.229 59.925 19.166 53.296 C 14.651 50.591 14.589 50.490 17.250 50.184 C 21.722 49.669 20.385 48.000 15.500 48.000 L 11.000 48.000 11.000 51.941 "/></g>
</svg>
