<?xml version="1.0" encoding="utf-8"?>
<!DOCTYPE svg PUBLIC "-//W3C//DTD SVG 20010904//EN" "http://www.w3.org/TR/2001/REC-SVG-20010904/DTD/svg10.dtd">
<svg version="1.0" xmlns="http://www.w3.org/2000/svg" width="57pt" height="63pt" viewBox="0 0 57 63" style="" preserveAspectRatio="xMidYMid meet">
<g fill="#000000FF" stroke="#000000FF">
<path d="M 34.000 1.933 C 34.000 4.202 30.470 5.635 28.634 4.111 C 27.722 3.355 26.720 3.508 25.082 4.655 C 23.300 5.903 22.926 6.880 23.373 9.116 C 24.125 12.877 23.231 15.000 20.893 15.000 C 19.394 15.000 19.000 15.733 19.000 18.525 C 19.000 21.382 19.483 22.233 21.547 23.018 C 23.771 23.864 24.015 24.401 23.476 27.274 C 22.705 31.387 25.969 35.118 28.806 33.364 C 31.105 31.942 32.947 32.731 34.040 35.605 C 35.277 38.858 42.000 38.721 42.000 35.443 C 42.000 33.307 45.101 32.046 47.173 33.340 C 48.634 34.253 49.405 34.040 51.222 32.222 C 53.132 30.312 53.282 29.682 52.228 27.994 C 51.184 26.322 51.305 25.695 52.995 24.005 C 54.098 22.902 55.450 22.000 56.000 22.000 C 56.550 22.000 57.000 20.608 57.000 18.906 C 57.000 16.769 56.444 15.667 55.200 15.342 C 52.915 14.745 50.672 11.320 52.020 10.487 C 55.325 8.445 50.374 2.194 46.918 4.044 C 44.609 5.280 42.327 4.357 41.692 1.931 C 40.958 -0.877 34.000 -0.876 34.000 1.933 M 39.000 3.799 C 39.000 6.197 45.481 8.675 47.459 7.034 C 49.244 5.553 50.620 7.547 49.088 9.394 C 47.608 11.177 50.532 17.000 52.907 17.000 C 53.875 17.000 54.667 17.675 54.667 18.500 C 54.667 19.325 53.935 20.000 53.042 20.000 C 52.139 20.000 50.677 21.632 49.752 23.672 C 48.193 27.112 48.196 27.423 49.794 28.601 C 51.390 29.776 51.380 29.903 49.649 30.574 C 48.573 30.991 47.496 30.802 47.076 30.123 C 45.984 28.356 38.642 31.626 39.381 33.550 C 39.751 34.514 39.277 35.000 37.969 35.000 C 36.747 35.000 36.000 34.324 36.000 33.219 C 36.000 30.917 30.230 28.564 28.370 30.108 C 26.541 31.626 24.563 30.231 26.034 28.459 C 27.675 26.481 25.197 20.000 22.799 20.000 C 21.810 20.000 21.000 19.325 21.000 18.500 C 21.000 17.675 21.865 17.000 22.922 17.000 C 25.245 17.000 28.148 9.883 26.102 9.201 C 25.194 8.898 25.191 8.475 26.091 7.390 C 26.905 6.409 27.639 6.286 28.485 6.987 C 30.372 8.554 36.000 6.244 36.000 3.902 C 36.000 2.856 36.675 2.000 37.500 2.000 C 38.325 2.000 39.000 2.810 39.000 3.799 "/></g>
<g fill="#000000FF" stroke="#000000FF">
<path d="M 16.500 11.164 C 9.895 14.809 5.192 22.194 4.541 29.947 C 4.312 32.663 3.119 36.634 1.890 38.771 C -0.523 42.963 -0.188 45.877 2.797 46.657 C 4.177 47.018 4.494 47.895 4.189 50.505 C 3.634 55.261 7.559 59.238 11.941 58.362 C 14.731 57.804 15.000 57.980 15.000 60.375 L 15.000 63.000 28.000 63.000 L 41.000 63.000 41.000 55.035 C 41.000 47.902 41.314 46.575 44.000 42.339 C 47.396 36.983 47.629 36.000 45.500 36.000 C 44.675 36.000 44.000 36.520 44.000 37.156 C 44.000 37.791 42.875 39.786 41.500 41.589 C 39.311 44.459 39.000 45.869 39.000 52.933 L 39.000 61.000 28.000 61.000 L 17.000 61.000 17.000 57.869 C 17.000 54.840 16.885 54.757 13.442 55.316 C 7.821 56.228 7.000 55.474 7.000 49.393 C 7.000 44.298 6.861 44.000 4.483 44.000 L 1.966 44.000 4.341 39.250 C 5.647 36.638 6.987 32.106 7.319 29.181 C 8.093 22.354 11.047 17.643 16.587 14.396 C 20.889 11.875 22.270 9.969 19.750 10.030 C 19.063 10.047 17.600 10.557 16.500 11.164 "/></g>
<g fill="#000000FF" stroke="#000000FF">
<path d="M 32.821 14.025 C 30.396 16.450 29.924 17.591 30.441 19.775 C 32.547 28.676 45.000 27.648 45.000 18.573 C 45.000 16.061 44.296 14.591 42.365 13.073 C 38.754 10.232 36.377 10.470 32.821 14.025 M 41.429 15.571 C 44.626 18.769 42.674 23.000 38.000 23.000 C 34.804 23.000 33.000 21.322 33.000 18.350 C 33.000 14.439 38.487 12.630 41.429 15.571 "/></g>
</svg>
